<svg width="45" height="45" viewBox="0 0 45 45" fill="none" xmlns="http://www.w3.org/2000/svg">
<rect width="45" height="45" rx="22.5" transform="matrix(1 0 0 -1 0 45)" fill="white"/>
<path d="M9 36L10.979 28.8137C9.75549 26.7044 9.11366 24.3156 9.12034 21.8736C9.12034 14.2215 15.3782 8 23.0602 8C26.7908 8 30.2942 9.44392 32.9217 12.0656C35.5559 14.6873 37.0067 18.174 37 21.8802C37 29.5323 30.7421 35.7538 23.0535 35.7538H23.0468C20.7135 35.7538 18.4202 35.1683 16.3811 34.0637L9 36ZM16.7354 31.5551L17.1566 31.808C18.935 32.8593 20.9742 33.4116 23.0535 33.4183H23.0602C29.4451 33.4183 34.6466 28.2481 34.6466 21.8869C34.6466 18.8061 33.4432 15.9116 31.2569 13.7291C29.0707 11.5466 26.1557 10.3489 23.0602 10.3489C16.6753 10.3422 11.4737 15.5124 11.4737 21.8736C11.4737 24.0494 12.0821 26.1721 13.2455 28.0086L13.5196 28.4477L12.3496 32.6996L16.7354 31.5551Z" fill="url(#paint0_linear_43_177)"/>
<path d="M9 36L10.979 28.8137C9.75549 26.7044 9.11366 24.3156 9.12034 21.8736C9.12034 14.2215 15.3782 8 23.0602 8C26.7908 8 30.2942 9.44392 32.9217 12.0656C35.5559 14.6873 37.0067 18.174 37 21.8802C37 29.5323 30.7421 35.7538 23.0535 35.7538H23.0468C20.7135 35.7538 18.4202 35.1683 16.3811 34.0637L9 36ZM16.7354 31.5551L17.1566 31.808C18.935 32.8593 20.9742 33.4116 23.0535 33.4183H23.0602C29.4451 33.4183 34.6466 28.2481 34.6466 21.8869C34.6466 18.8061 33.4432 15.9116 31.2569 13.7291C29.0707 11.5466 26.1557 10.3489 23.0602 10.3489C16.6753 10.3422 11.4737 15.5124 11.4737 21.8736C11.4737 24.0494 12.0821 26.1721 13.2455 28.0086L13.5196 28.4477L12.3496 32.6996L16.7354 31.5551Z" fill="url(#paint1_linear_43_177)"/>
<path fill-rule="evenodd" clip-rule="evenodd" d="M19.5767 16.0713C19.3159 15.4924 19.0418 15.4791 18.7944 15.4724C18.5939 15.4658 18.3599 15.4658 18.1259 15.4658C17.8919 15.4658 17.5175 15.5523 17.1965 15.8983C16.8756 16.2443 15.9797 17.0827 15.9797 18.7928C15.9797 20.4962 17.23 22.1464 17.4038 22.3793C17.5776 22.6122 19.8174 26.2253 23.3541 27.616C26.2959 28.7738 26.8976 28.5409 27.5327 28.481C28.1679 28.4211 29.592 27.6426 29.8861 26.8308C30.1736 26.019 30.1736 25.327 30.0867 25.1806C29.9998 25.0342 29.7658 24.9477 29.4181 24.7747C29.0705 24.6017 27.3589 23.7633 27.038 23.6435C26.7171 23.5304 26.4831 23.4705 26.2558 23.8166C26.0218 24.1626 25.3532 24.9411 25.1526 25.174C24.952 25.4069 24.7448 25.4335 24.3971 25.2605C24.0495 25.0875 22.9262 24.7215 21.5958 23.5371C20.5595 22.6188 19.8575 21.481 19.6569 21.135C19.4563 20.789 19.6368 20.6027 19.8107 20.4297C19.9645 20.2766 20.1583 20.0238 20.3322 19.8242C20.506 19.6245 20.5662 19.4781 20.6798 19.2453C20.7935 19.0124 20.74 18.8127 20.6531 18.6397C20.5662 18.4734 19.8842 16.7567 19.5767 16.0713Z" fill="url(#paint2_linear_43_177)"/>
<defs>
<linearGradient id="paint0_linear_43_177" x1="15.2329" y1="2.70271" x2="45.6013" y2="7.00105" gradientUnits="userSpaceOnUse">
<stop stop-color="#B321E6"/>
<stop offset="1" stop-color="#FF8BFA"/>
</linearGradient>
<linearGradient id="paint1_linear_43_177" x1="15.2329" y1="2.70271" x2="45.6013" y2="7.00105" gradientUnits="userSpaceOnUse">
<stop stop-color="#B321E6"/>
<stop offset="1" stop-color="#FF8BFA"/>
</linearGradient>
<linearGradient id="paint2_linear_43_177" x1="19.1313" y1="12.9922" x2="34.4347" y2="15.3376" gradientUnits="userSpaceOnUse">
<stop stop-color="#B321E6"/>
<stop offset="1" stop-color="#FF8BFA"/>
</linearGradient>
</defs>
</svg>
