<svg width="45" height="45" viewBox="0 0 45 45" fill="none" xmlns="http://www.w3.org/2000/svg">
<rect width="45" height="45" rx="22.5" transform="matrix(1 0 0 -1 0 45)" fill="white"/>
<path d="M35.9216 17.2274C35.8544 15.7366 35.6136 14.7166 35.2719 13.8255C34.9134 12.9063 34.4373 12.1217 33.6588 11.3483C32.8802 10.5749 32.1017 10.0873 31.1831 9.73419C30.2925 9.38671 29.2731 9.15132 27.7832 9.08407C26.2877 9.01681 25.8116 9 22.014 9C18.2109 9 17.7348 9.01681 16.2449 9.08407C14.755 9.15132 13.7356 9.39231 12.845 9.73419C11.9208 10.0929 11.1367 10.5693 10.3637 11.3483C9.59076 12.1273 9.10346 12.9063 8.75059 13.8255C8.40892 14.7166 8.16808 15.7366 8.10086 17.2274C8.03365 18.7238 8.01685 19.2002 8.01685 23C8.01685 26.8054 8.03365 27.2818 8.10086 28.7726C8.16808 30.2634 8.40892 31.2834 8.75059 32.1745C9.10906 33.0937 9.58516 33.8783 10.3637 34.6517C11.1367 35.4307 11.9208 35.9127 12.8394 36.2658C13.73 36.6133 14.7494 36.8487 16.2393 36.9159C17.7348 36.9832 18.2109 37 22.0084 37C25.8116 37 26.2877 36.9832 27.7776 36.9159C29.2675 36.8487 30.2869 36.6077 31.1775 36.2658C32.0961 35.9071 32.8802 35.4307 33.6532 34.6517C34.4261 33.8727 34.9134 33.0937 35.2663 32.1745C35.6136 31.2834 35.8488 30.2634 35.916 28.7726C35.9832 27.2762 36 26.7998 36 23C36 19.2002 35.9888 18.7182 35.9216 17.2274ZM33.4067 28.6605C33.3451 30.028 33.1155 30.7734 32.925 31.261C32.673 31.9111 32.3649 32.3819 31.872 32.8751C31.3791 33.3683 30.9142 33.6653 30.2589 33.9287C29.766 34.1193 29.021 34.3491 27.66 34.4107C26.1869 34.478 25.7444 34.4948 22.0028 34.4948C18.2613 34.4948 17.8188 34.478 16.3457 34.4107C14.979 34.3491 14.2341 34.1193 13.7468 33.9287C13.0971 33.6765 12.6266 33.3683 12.1337 32.8751C11.6408 32.3819 11.3439 31.9167 11.0807 31.261C10.8902 30.7678 10.6606 30.0224 10.599 28.6605C10.5317 27.1866 10.5149 26.7438 10.5149 23C10.5149 19.2562 10.5317 18.8135 10.599 17.3395C10.6606 15.972 10.8902 15.2266 11.0807 14.739C11.3327 14.0889 11.6408 13.6181 12.1337 13.1249C12.6266 12.6317 13.0915 12.3347 13.7468 12.0713C14.2397 11.8807 14.9846 11.6509 16.3457 11.5893C17.8188 11.522 18.2613 11.5052 22.0028 11.5052C25.7444 11.5052 26.1869 11.522 27.66 11.5893C29.0266 11.6509 29.7716 11.8807 30.2589 12.0713C30.9086 12.3235 31.3791 12.6317 31.872 13.1249C32.3649 13.6181 32.6618 14.0833 32.925 14.739C33.1155 15.2322 33.3451 15.9776 33.4067 17.3395C33.4739 18.8135 33.4907 19.2562 33.4907 23C33.4907 26.7438 33.4683 27.1866 33.4067 28.6605Z" fill="url(#paint0_linear_43_170)"/>
<path d="M22.0029 15.8038C18.0261 15.8038 14.811 19.0264 14.811 23C14.811 26.9792 18.0317 30.1961 22.0029 30.1961C25.9741 30.1961 29.1947 26.968 29.1947 23C29.1947 19.0208 25.9797 15.8038 22.0029 15.8038ZM22.0029 27.6685C19.4264 27.6685 17.3371 25.5781 17.3371 23C17.3371 20.4219 19.4264 18.3315 22.0029 18.3315C24.5794 18.3315 26.6686 20.4219 26.6686 23C26.6686 25.5781 24.5794 27.6685 22.0029 27.6685Z" fill="url(#paint1_linear_43_170)"/>
<path d="M29.4748 17.205C30.4028 17.205 31.1551 16.4522 31.1551 15.5236C31.1551 14.595 30.4028 13.8423 29.4748 13.8423C28.5467 13.8423 27.7944 14.595 27.7944 15.5236C27.7944 16.4522 28.5467 17.205 29.4748 17.205Z" fill="url(#paint2_linear_43_170)"/>
<path d="M8 23C8 26.8054 8.0168 27.2818 8.08402 28.7726C8.15123 30.2634 8.39208 31.2834 8.73375 32.1745C9.09222 33.0937 9.56831 33.8783 10.3469 34.6517C11.1198 35.4251 11.904 35.9127 12.8226 36.2658C13.7131 36.6133 14.7325 36.8487 16.2224 36.9159C17.7179 36.9832 18.194 37 21.9916 37C25.7948 37 26.2709 36.9832 27.7608 36.9159C29.2507 36.8487 30.2701 36.6077 31.1606 36.2658C32.0792 35.9071 32.8634 35.4307 33.6363 34.6517C34.4093 33.8783 34.8966 33.0937 35.2495 32.1745C35.5967 31.2834 35.832 30.2634 35.8992 28.7726C35.9664 27.2762 35.9832 26.7998 35.9832 23C35.9832 19.1946 35.9664 18.7182 35.8992 17.2274C35.832 15.7366 35.5911 14.7166 35.2495 13.8255C34.891 12.9063 34.4149 12.1217 33.6363 11.3483C32.869 10.5693 32.0848 10.0873 31.1662 9.73419C30.2757 9.38671 29.2563 9.15132 27.7664 9.08407C26.2709 9.01681 25.7948 9 21.9972 9C18.194 9 17.7179 9.01681 16.228 9.08407C14.7381 9.15132 13.7187 9.39231 12.8282 9.73419C11.9096 10.0929 11.1254 10.5693 10.3525 11.3483C9.57952 12.1273 9.09222 12.9063 8.73935 13.8255C8.39208 14.7166 8.15123 15.7366 8.08402 17.2274C8.0168 18.7182 8 19.1946 8 23ZM10.5261 23C10.5261 19.2618 10.5429 18.8135 10.6101 17.3395C10.6717 15.972 10.9014 15.2266 11.0918 14.739C11.3439 14.0889 11.6519 13.6181 12.1448 13.1249C12.6377 12.6317 13.1026 12.3347 13.758 12.0713C14.2509 11.8807 14.9958 11.6509 16.3569 11.5893C17.83 11.522 18.2725 11.5052 22.014 11.5052C25.7556 11.5052 26.198 11.522 27.6711 11.5893C29.0378 11.6509 29.7828 11.8807 30.2701 12.0713C30.9198 12.3235 31.3903 12.6317 31.8832 13.1249C32.3761 13.6181 32.6729 14.0833 32.9362 14.739C33.1266 15.2322 33.3563 15.9776 33.4179 17.3395C33.4851 18.8135 33.5019 19.2562 33.5019 23C33.5019 26.7438 33.4851 27.1866 33.4179 28.6605C33.3563 30.028 33.1266 30.7734 32.9362 31.261C32.6841 31.9111 32.3761 32.3819 31.8832 32.8751C31.3903 33.3683 30.9254 33.6653 30.2701 33.9287C29.7772 34.1193 29.0322 34.3491 27.6711 34.4107C26.198 34.478 25.7556 34.4948 22.014 34.4948C18.2725 34.4948 17.83 34.478 16.3569 34.4107C14.9902 34.3491 14.2452 34.1193 13.758 33.9287C13.1082 33.6765 12.6377 33.3683 12.1448 32.8751C11.6519 32.3819 11.3551 31.9167 11.0918 31.261C10.9014 30.7678 10.6717 30.0224 10.6101 28.6605C10.5373 27.1866 10.5261 26.7382 10.5261 23Z" fill="url(#paint3_linear_43_170)"/>
<defs>
<linearGradient id="paint0_linear_43_170" x1="14.2461" y1="3.70271" x2="44.5969" y2="7.996" gradientUnits="userSpaceOnUse">
<stop stop-color="#B321E6"/>
<stop offset="1" stop-color="#FF8BFA"/>
</linearGradient>
<linearGradient id="paint1_linear_43_170" x1="18.0129" y1="13.081" x2="33.6136" y2="15.2878" gradientUnits="userSpaceOnUse">
<stop stop-color="#B321E6"/>
<stop offset="1" stop-color="#FF8BFA"/>
</linearGradient>
<linearGradient id="paint2_linear_43_170" x1="28.5425" y1="13.2061" x2="32.1875" y2="13.7217" gradientUnits="userSpaceOnUse">
<stop stop-color="#B321E6"/>
<stop offset="1" stop-color="#FF8BFA"/>
</linearGradient>
<linearGradient id="paint3_linear_43_170" x1="14.2292" y1="3.70271" x2="44.58" y2="7.996" gradientUnits="userSpaceOnUse">
<stop stop-color="#B321E6"/>
<stop offset="1" stop-color="#FF8BFA"/>
</linearGradient>
</defs>
</svg>
