<svg width="78" height="94" viewBox="0 0 78 94" fill="none" xmlns="http://www.w3.org/2000/svg">
<mask id="mask0_1148_1974" style="mask-type:luminance" maskUnits="userSpaceOnUse" x="0" y="0" width="72" height="94">
<path d="M8.39233e-05 0H71.5381V93.1147H8.39233e-05V0Z" fill="white"/>
</mask>
<g mask="url(#mask0_1148_1974)">
<path d="M29.779 59.9043C29.9163 60.1349 30.3445 60.7334 30.5257 60.8596C31.0198 61.2055 31.7445 61.0957 32.2826 60.8322C32.8426 60.5632 32.7712 59.6957 32.4088 59.2455C32.1233 58.8886 31.7939 58.7404 31.3382 58.669C31.0363 58.6251 30.7343 58.6526 30.4378 58.7129C30.1578 58.7678 29.7241 58.7953 29.5704 59.0808C29.4331 59.3498 29.6472 59.6792 29.779 59.9043Z" fill="url(#paint0_linear_1148_1974)"/>
<path d="M31.5632 63.0557C31.7664 63.72 31.9531 63.978 32.0848 64.1757C32.2111 64.3733 32.4691 64.6588 32.6284 64.6863C32.7876 64.7137 33.7978 65.0376 34.4127 64.4392C35.1539 63.72 34.7092 62.6768 33.8801 62.2761C33.3531 62.018 32.6723 61.7764 32.0793 61.9027C32.0629 61.9082 31.8103 61.9796 31.8487 62.007C31.6401 62.2376 31.4699 62.6823 31.5632 63.0557Z" fill="url(#paint1_linear_1148_1974)"/>
<path d="M32.7821 65.5043C32.7272 65.7569 32.8206 66.2455 32.8809 66.4102C32.9468 66.5969 33.0731 66.7671 33.1829 66.9318C33.2927 67.0965 33.4245 67.2831 33.6386 67.349C33.8857 67.4259 34.1876 67.2941 34.4182 67.1843C34.8794 66.9537 35.2088 66.531 35.1155 66.0643C35.0386 65.658 34.6323 65.2737 34.2261 65.1035C33.7978 64.9278 32.9084 64.9168 32.7821 65.5043Z" fill="url(#paint2_linear_1148_1974)"/>
<path d="M34.9616 67.1293C35.538 67.2556 35.7961 67.7607 35.6479 68.3152C35.6094 68.4525 35.5106 68.6282 35.4118 68.738C35.3184 68.8478 35.0878 68.9631 35 68.9741C34.9122 68.9905 34.6322 69.04 34.5223 68.9521C34.2643 68.8423 34.0612 68.5623 33.9678 68.447C33.869 68.3317 33.7263 67.6015 33.891 67.3984C34.0886 67.1458 34.1984 67.1623 34.2094 67.1568C34.3082 67.0799 34.7914 67.0909 34.9616 67.1293Z" fill="url(#paint3_linear_1148_1974)"/>
<path d="M23.5641 75.6773C23.5806 75.4741 23.6794 74.7385 23.6794 74.7385L23.597 74.442C23.597 74.442 22.8778 72.7565 22.6802 72.0153C22.4825 71.2741 22.0927 69.9345 22.0652 69.7368C21.7358 67.6121 22.8668 63.9336 23.4104 61.4081C23.9155 59.0583 29.9767 58.0316 30.2183 58.4763C30.4598 58.921 31.0528 60.645 30.8606 61.0732C30.674 61.5015 30.7563 66.2286 31.3548 66.827C31.9532 67.4254 32.612 68.2819 32.7712 68.7596C32.925 69.2317 33.3861 70.8568 33.3203 71.5047C33.3203 71.5157 33.3203 71.5267 33.3148 71.5376C33.2324 72.3063 33.0512 73.278 32.7108 74.0357C32.3375 74.8043 31.9587 75.282 31.8159 75.4632C31.5908 75.7596 31.3273 75.9902 31.1791 76.5283C31.0473 77.0004 31.1351 77.8459 31.1351 77.8459C31.0693 77.7197 31.5689 81.0962 31.5634 81.1511C31.5524 81.217 21.9774 86.3229 21.9774 86.3229C21.9335 86.1198 23.5476 75.8804 23.5641 75.6773Z" fill="url(#paint4_linear_1148_1974)"/>
<path d="M22.6802 72.0153C22.4825 71.2741 22.0927 69.9345 22.0653 69.7368C21.7359 67.6121 22.8669 63.9336 23.4104 61.4081C23.9155 59.0583 29.9767 58.0316 30.2183 58.4763C30.4599 58.921 31.0528 60.645 30.8607 61.0732C30.674 61.5015 30.7564 66.2286 31.3548 66.827C31.4591 66.9313 31.5689 67.0466 31.6787 67.1674L22.6802 72.0153Z" fill="url(#paint5_linear_1148_1974)"/>
<path d="M27.9949 65.6964C27.8137 65.5482 26.4302 65.0596 26.4302 65.0596C26.4302 65.0596 25.7714 65.5482 25.6396 65.6525C25.5078 65.7568 25.162 66.1192 25.0961 66.2455C24.9918 66.4486 24.5416 67.1184 24.5416 67.1184C25.118 67.2063 24.5635 67.5631 26.3918 70.8079C27.5228 73.5695 28.1432 75.1726 30.1142 75.3263C32.5244 75.3318 32.7056 74.0361 32.9856 73.262C32.9856 73.262 33.1997 72.4769 33.2546 71.9389C33.2985 71.7412 33.282 71.5161 33.3095 71.4008C33.6554 67.4533 28.1761 65.8447 27.9949 65.6964Z" fill="url(#paint6_linear_1148_1974)"/>
<path d="M15.5977 48.9736C15.5977 48.9736 12.0839 53.1682 17.6895 55.2161L15.5977 48.9736Z" fill="#39334A"/>
<path d="M22.4769 55.1884C22.4769 55.1884 23.3993 68.2168 28.4229 75.0247C28.6699 75.3541 29.0652 75.5353 29.477 75.4913C30.5805 75.3815 32.9633 75.0302 35.5986 73.987C36.23 73.7399 36.51 72.9988 36.2135 72.3893C34.4786 68.8536 30.0809 56.8904 29.5923 52.0205L22.4769 55.1884Z" fill="#39334A"/>
<path d="M24.7388 43.2363L16.0423 46.1571C15.7513 46.256 15.5372 46.503 15.4823 46.805C15.1968 48.4027 14.6807 53.5306 18.8698 56.9016C19.0894 57.0773 19.3804 57.1376 19.6494 57.0553L28.5601 54.3925L24.7388 43.2363Z" fill="url(#paint7_linear_1148_1974)"/>
<path d="M43.5083 21.832C43.5083 21.832 42.9647 34.7671 24.8853 42.997C24.6987 43.0793 24.5614 43.2495 24.5175 43.4472C24.1936 44.8417 23.1559 50.321 28.5748 54.7955C28.7669 54.9547 29.025 54.9877 29.2501 54.8834C31.3309 53.9555 37.3153 51.7868 56.8057 60.0442L53.0778 38.9012L43.5083 21.832Z" fill="url(#paint8_linear_1148_1974)"/>
<path d="M57.1367 38.1959C60.7328 48.9129 61.1611 58.4385 58.0975 59.4652C55.4787 60.3436 51.1633 54.7545 47.7154 46.4368C47.1225 45.0039 46.557 43.494 46.0299 41.9238C45.4864 40.2987 45.0142 38.7065 44.6134 37.1638C42.3789 28.5166 42.4613 21.5275 45.0691 20.6546C48.1382 19.6224 53.5406 27.479 57.1367 38.1959Z" fill="url(#paint9_radial_1148_1974)"/>
<path d="M51.081 40.1555C51.9594 42.7798 50.8614 45.5085 48.6323 46.2606C48.3303 46.3594 48.0284 46.4198 47.7209 46.4418C47.128 45.0089 46.5625 43.499 46.0354 41.9288C45.4919 40.3037 45.0197 38.7115 44.6189 37.1688C44.8715 37.0041 45.1515 36.8668 45.448 36.768C47.677 36.0158 50.197 37.5311 51.081 40.1555Z" fill="url(#paint10_linear_1148_1974)"/>
<path d="M57.653 38.0256C54.4137 28.3682 48.8411 18.8207 44.8991 20.1438C40.9571 21.467 42.2748 32.442 45.514 42.0994C48.7533 51.7567 54.3259 61.3043 58.2679 59.9811C62.2099 58.658 60.8922 47.6829 57.653 38.0256ZM56.6208 38.3715C60.3597 49.5057 60.3048 58.1529 57.922 58.9544C55.5392 59.756 50.2796 52.8877 46.5407 41.7535C42.8018 30.6192 42.8567 21.9721 45.2395 21.1705C47.6278 20.3689 52.8874 27.2372 56.6208 38.3715Z" fill="url(#paint11_linear_1148_1974)"/>
<path d="M21.9884 78.5214L32.0795 80.2344L32.2881 78.4226L22.4331 76.792L21.9884 78.5214Z" fill="url(#paint12_linear_1148_1974)"/>
<path d="M16.2454 95.9805L29.4495 104.15L32.4307 80.0478L21.538 78.1592L16.2454 95.9805Z" fill="url(#paint13_linear_1148_1974)"/>
<path d="M31.4697 83.0678C31.4917 82.7659 31.2666 82.5078 30.9701 82.4859C30.6681 82.4639 30.4101 82.689 30.3881 82.9855C30.3662 83.2874 30.5913 83.5455 30.8877 83.5674C31.1842 83.5949 31.4478 83.3698 31.4697 83.0678Z" fill="#393F3E"/>
<path d="M31.8266 81.0688C31.8486 80.7668 31.6235 80.5088 31.327 80.4868C31.0251 80.4649 30.767 80.69 30.7451 80.9864C30.7231 81.2884 30.9482 81.5464 31.2447 81.5684C31.5412 81.5904 31.7992 81.3708 31.8266 81.0688Z" fill="#393F3E"/>
<path d="M22.2245 68.0353C22.6528 66.9098 23.2128 66.3497 23.7728 65.7733C24.3273 65.1968 25.3979 63.4564 26.0018 63.1325C26.1391 63.0611 26.2873 63.0117 26.4355 62.9732C26.6057 62.9293 26.7869 62.8964 26.9626 62.8634C27.1328 62.836 27.3085 62.814 27.4787 62.7976C27.6159 62.7866 27.7532 62.7756 27.8905 62.7646C28.0881 62.7536 28.2803 62.7317 28.4724 62.6768C28.5767 62.6493 28.6866 62.6219 28.7909 62.5889C29.2191 62.4297 29.7681 62.265 29.7681 62.265C29.9438 62.1936 30.3885 62.0838 30.4544 62.1003C30.6081 62.1332 30.7619 62.3089 30.7564 62.3034C31.4207 63.1434 30.8003 64.7905 27.5995 66.0039C27.5995 66.0039 27.1108 67.7553 26.5508 68.6117C26.5454 68.6172 26.9352 69.0235 26.9516 69.04C27.7312 69.9404 28.3407 70.8078 28.7085 71.9498C28.8018 72.2408 28.8787 72.6965 28.8513 73.1028C28.8073 73.4596 28.7195 73.6408 28.5987 73.9263C27.9783 75.3977 25.8261 75.6283 24.5908 74.9859C24.234 74.7993 23.8387 74.5302 23.5587 74.2447C23.3445 74.0251 23.0975 73.7671 22.9163 73.52C22.7516 73.2894 22.6528 72.8777 22.5649 72.6031C22.1312 71.2525 21.7963 69.1553 22.2245 68.0353Z" fill="url(#paint14_linear_1148_1974)"/>
<path d="M30.4653 62.1934C30.4818 62.2263 30.6685 62.9345 29.9273 63.22C29.1916 63.5 28.9061 63.0992 28.7853 62.9785C28.7414 62.929 28.6865 62.8796 28.6261 62.8412C28.5492 62.8741 28.4339 62.8083 28.3132 62.8632C28.423 62.8522 28.5108 62.8412 28.7743 63.1157C28.9336 63.2749 29.2355 63.7032 30.0096 63.4067C30.7838 63.1102 30.8002 62.7424 30.7728 62.5557C30.7618 62.3965 30.5971 62.2043 30.4653 62.1934Z" fill="url(#paint15_linear_1148_1974)"/>
<path d="M30.6577 62.4795C30.6413 62.2599 30.4656 62.1885 30.4656 62.1885C30.4656 62.1885 29.5597 62.3257 28.3134 62.8583C28.4726 62.8253 28.6264 62.9516 28.7307 63.0614C28.8515 63.1932 29.1479 63.605 29.9111 63.314C30.6687 63.0285 30.6797 62.8308 30.6577 62.4795Z" fill="url(#paint16_linear_1148_1974)"/>
</g>
<path d="M60.3596 26.0074L62.8247 21.9775L60.5792 24.0803L59.9972 22.8615L57.1258 27.5392L59.7831 24.7776L60.3596 26.0074Z" fill="url(#paint17_linear_1148_1974)"/>
<path d="M70.4237 34.3088L77.001 30.7402L72.2519 31.8382L72.4331 29.708L64.7687 33.8367L70.6103 32.1622L70.4237 34.3088Z" fill="url(#paint18_linear_1148_1974)"/>
<path d="M60.4201 52.5089L65.4272 53.9968L62.5449 52.196L63.6813 51.2297L57.8672 49.4893L61.5731 51.5426L60.4201 52.5089Z" fill="url(#paint19_linear_1148_1974)"/>
<path d="M51.4768 24.7169L52.1851 19.8965L50.9058 22.7953L49.8627 21.873L49.0227 27.473L50.4337 23.7836L51.4768 24.7169Z" fill="url(#paint20_linear_1148_1974)"/>
<path d="M78 47.5127L73.6902 45.9535L74.7662 44.559L66.5693 43.9111L72.0705 45.5747L70.9835 46.9692L78 47.5127Z" fill="url(#paint21_linear_1148_1974)"/>
<path d="M62.1551 29.3015L57.6256 32.6835L62.4131 29.6638C62.5175 29.598 62.5504 29.4607 62.4845 29.3564C62.4186 29.2521 62.2814 29.2191 62.1771 29.285C62.1661 29.296 62.1606 29.3015 62.1551 29.3015Z" fill="url(#paint22_linear_1148_1974)"/>
<path d="M74.2995 37.3396L65.8445 38.1412L74.3379 38.0039C74.5246 37.9985 74.6728 37.8502 74.6673 37.6635C74.6618 37.4769 74.5136 37.3286 74.3269 37.3341C74.316 37.3396 74.305 37.3396 74.2995 37.3396Z" fill="url(#paint23_linear_1148_1974)"/>
<path d="M70.7144 26.6446L67.8705 28.7418L70.8737 26.8751C70.9395 26.8367 70.9615 26.7489 70.9176 26.683C70.8791 26.6171 70.7913 26.5951 70.7254 26.6391C70.7199 26.6446 70.7199 26.6446 70.7144 26.6446Z" fill="url(#paint24_linear_1148_1974)"/>
<path d="M72.9985 52.3885L67.1459 50.5986L72.8393 52.8441C72.9656 52.8936 73.1028 52.8332 73.1522 52.7069C73.2016 52.5806 73.1412 52.4434 73.015 52.3939C73.0095 52.3939 73.004 52.3885 72.9985 52.3885Z" fill="url(#paint25_linear_1148_1974)"/>
<path d="M56.9943 18.7381L55.3692 22.3837L57.2743 18.8754C57.3182 18.7985 57.2853 18.7052 57.2084 18.6613C57.1315 18.6174 57.0382 18.6503 56.9943 18.7272C56.9998 18.7326 56.9998 18.7381 56.9943 18.7381Z" fill="url(#paint26_linear_1148_1974)"/>
<defs>
<linearGradient id="paint0_linear_1148_1974" x1="32.19" y1="58.9281" x2="31.4297" y2="59.5441" gradientUnits="userSpaceOnUse">
<stop stop-color="#F5C998"/>
<stop offset="1" stop-color="#FFA070"/>
</linearGradient>
<linearGradient id="paint1_linear_1148_1974" x1="34.4878" y1="62.7318" x2="33.327" y2="63.1885" gradientUnits="userSpaceOnUse">
<stop stop-color="#F5C998"/>
<stop offset="1" stop-color="#FFA070"/>
</linearGradient>
<linearGradient id="paint2_linear_1148_1974" x1="34.9482" y1="65.6349" x2="33.9189" y2="66.08" gradientUnits="userSpaceOnUse">
<stop stop-color="#F5C998"/>
<stop offset="1" stop-color="#FFA070"/>
</linearGradient>
<linearGradient id="paint3_linear_1148_1974" x1="35.615" y1="67.6341" x2="34.9726" y2="67.9119" gradientUnits="userSpaceOnUse">
<stop stop-color="#F5C998"/>
<stop offset="1" stop-color="#FFA070"/>
</linearGradient>
<linearGradient id="paint4_linear_1148_1974" x1="27.4883" y1="72.0365" x2="26.6066" y2="82.4772" gradientUnits="userSpaceOnUse">
<stop stop-color="#F5C998"/>
<stop offset="1" stop-color="#FFA070"/>
</linearGradient>
<linearGradient id="paint5_linear_1148_1974" x1="26.1082" y1="62.5911" x2="26.5659" y2="65.862" gradientUnits="userSpaceOnUse">
<stop stop-color="#F5C998"/>
<stop offset="1" stop-color="#FFA070"/>
</linearGradient>
<linearGradient id="paint6_linear_1148_1974" x1="28.2382" y1="74.8747" x2="28.7672" y2="70.6384" gradientUnits="userSpaceOnUse">
<stop stop-color="#F8BD8C"/>
<stop offset="1" stop-color="#FFA070"/>
</linearGradient>
<linearGradient id="paint7_linear_1148_1974" x1="19.9245" y1="45.4412" x2="22.8943" y2="55.9347" gradientUnits="userSpaceOnUse">
<stop stop-color="#F7931E"/>
<stop offset="1" stop-color="#ED1C24"/>
</linearGradient>
<linearGradient id="paint8_linear_1148_1974" x1="40.5101" y1="33.1843" x2="40.5101" y2="57.7912" gradientUnits="userSpaceOnUse">
<stop stop-color="white"/>
<stop offset="0.586" stop-color="#EFEFEF"/>
<stop offset="1" stop-color="#999999"/>
</linearGradient>
<radialGradient id="paint9_radial_1148_1974" cx="0" cy="0" r="1" gradientUnits="userSpaceOnUse" gradientTransform="translate(48.4165 40.472) rotate(160.925) scale(8.77607 21.8379)">
<stop stop-color="#999999"/>
<stop offset="0.1935" stop-color="#C0C0C0"/>
<stop offset="0.3495" stop-color="#CCCCCC"/>
<stop offset="0.6398" stop-color="#E7E7E7"/>
<stop offset="1" stop-color="white"/>
</radialGradient>
<linearGradient id="paint10_linear_1148_1974" x1="48.5536" y1="37.0444" x2="46.8477" y2="45.6371" gradientUnits="userSpaceOnUse">
<stop stop-color="#F7931E"/>
<stop offset="1" stop-color="#ED1C24"/>
</linearGradient>
<linearGradient id="paint11_linear_1148_1974" x1="68.4508" y1="81.6043" x2="41.3762" y2="14.9238" gradientUnits="userSpaceOnUse">
<stop stop-color="white"/>
<stop offset="0.586" stop-color="#EFEFEF"/>
<stop offset="1" stop-color="#999999"/>
</linearGradient>
<linearGradient id="paint12_linear_1148_1974" x1="32.1802" y1="79.3671" x2="22.2715" y2="77.6085" gradientUnits="userSpaceOnUse">
<stop offset="0.5911" stop-color="white"/>
<stop offset="1" stop-color="#E2D7DA"/>
</linearGradient>
<linearGradient id="paint13_linear_1148_1974" x1="18.9692" y1="89.9456" x2="30.3333" y2="91.9892" gradientUnits="userSpaceOnUse">
<stop stop-color="#444C4B"/>
<stop offset="0.2217" stop-color="#4B5453"/>
<stop offset="0.4926" stop-color="#515B59"/>
</linearGradient>
<linearGradient id="paint14_linear_1148_1974" x1="28.6793" y1="63.5077" x2="24.445" y2="73.1879" gradientUnits="userSpaceOnUse">
<stop stop-color="#FAB786"/>
<stop offset="0.6559" stop-color="#FCAE7D"/>
<stop offset="1" stop-color="#F8BE8D"/>
</linearGradient>
<linearGradient id="paint15_linear_1148_1974" x1="30.7703" y1="62.5026" x2="28.5159" y2="63.3784" gradientUnits="userSpaceOnUse">
<stop stop-color="#FAB786"/>
<stop offset="1" stop-color="#FA7C3F"/>
</linearGradient>
<linearGradient id="paint16_linear_1148_1974" x1="30.4437" y1="62.1447" x2="28.9911" y2="63.2463" gradientUnits="userSpaceOnUse">
<stop offset="0.5108" stop-color="#F9D9BB"/>
<stop offset="1" stop-color="#FEA97A"/>
</linearGradient>
<linearGradient id="paint17_linear_1148_1974" x1="62.3436" y1="22.1093" x2="57.3732" y2="27.4495" gradientUnits="userSpaceOnUse">
<stop offset="0.133" stop-color="#FFCF25"/>
<stop offset="0.7044" stop-color="#F44B57"/>
<stop offset="1" stop-color="#8F1E79"/>
</linearGradient>
<linearGradient id="paint18_linear_1148_1974" x1="77.003" y1="32.0084" x2="64.7707" y2="32.0084" gradientUnits="userSpaceOnUse">
<stop offset="0.133" stop-color="#FFCF25"/>
<stop offset="0.7044" stop-color="#F44B57"/>
<stop offset="1" stop-color="#8F1E79"/>
</linearGradient>
<linearGradient id="paint19_linear_1148_1974" x1="65.5098" y1="51.8915" x2="57.7849" y2="51.5923" gradientUnits="userSpaceOnUse">
<stop offset="0.133" stop-color="#FFCF25"/>
<stop offset="0.7044" stop-color="#F44B57"/>
<stop offset="1" stop-color="#8F1E79"/>
</linearGradient>
<linearGradient id="paint20_linear_1148_1974" x1="52.2073" y1="20.2229" x2="48.7502" y2="27.1369" gradientUnits="userSpaceOnUse">
<stop offset="0.133" stop-color="#FFCF25"/>
<stop offset="0.7044" stop-color="#F44B57"/>
<stop offset="1" stop-color="#8F1E79"/>
</linearGradient>
<linearGradient id="paint21_linear_1148_1974" x1="77.4319" y1="47.4106" x2="66.8152" y2="43.5843" gradientUnits="userSpaceOnUse">
<stop offset="0.133" stop-color="#FFCF25"/>
<stop offset="0.7044" stop-color="#F44B57"/>
<stop offset="1" stop-color="#8F1E79"/>
</linearGradient>
<linearGradient id="paint22_linear_1148_1974" x1="62.346" y1="29.4424" x2="57.9239" y2="32.616" gradientUnits="userSpaceOnUse">
<stop stop-color="white" stop-opacity="0.8"/>
<stop offset="1" stop-color="white" stop-opacity="0"/>
</linearGradient>
<linearGradient id="paint23_linear_1148_1974" x1="74.4323" y1="37.6649" x2="66.2805" y2="38.2842" gradientUnits="userSpaceOnUse">
<stop stop-color="white" stop-opacity="0.8"/>
<stop offset="1" stop-color="white" stop-opacity="0"/>
</linearGradient>
<linearGradient id="paint24_linear_1148_1974" x1="70.8328" y1="26.7334" x2="68.0581" y2="28.6986" gradientUnits="userSpaceOnUse">
<stop stop-color="white" stop-opacity="0.8"/>
<stop offset="1" stop-color="white" stop-opacity="0"/>
</linearGradient>
<linearGradient id="paint25_linear_1148_1974" x1="72.9967" y1="52.6433" x2="67.3991" y2="50.8143" gradientUnits="userSpaceOnUse">
<stop stop-color="white" stop-opacity="0.8"/>
<stop offset="1" stop-color="white" stop-opacity="0"/>
</linearGradient>
<linearGradient id="paint26_linear_1148_1974" x1="57.1609" y1="18.7602" x2="55.5333" y2="22.2402" gradientUnits="userSpaceOnUse">
<stop stop-color="white" stop-opacity="0.8"/>
<stop offset="1" stop-color="white" stop-opacity="0"/>
</linearGradient>
</defs>
</svg>
