<svg width="346" height="253" viewBox="0 0 346 253" fill="none" xmlns="http://www.w3.org/2000/svg">
<g filter="url(#filter0_d_1503_2702)">
<g filter="url(#filter1_d_1503_2702)">
<rect x="82" y="62" width="182" height="88.2836" rx="44.1418" fill="white"/>
</g>
<path d="M145.122 114C144.962 114 144.826 113.952 144.714 113.856C144.618 113.744 144.57 113.608 144.57 113.448V106.272C144.57 104.992 144.25 104 143.61 103.296C142.97 102.576 141.938 102.216 140.514 102.216H136.002C135.842 102.216 135.706 102.168 135.594 102.072C135.498 101.96 135.45 101.824 135.45 101.664V100.848C135.45 100.688 135.498 100.56 135.594 100.464C135.706 100.352 135.842 100.296 136.002 100.296H140.634C142.714 100.296 144.25 100.8 145.242 101.808C146.25 102.816 146.754 104.28 146.754 106.2V113.448C146.754 113.608 146.698 113.744 146.586 113.856C146.49 113.952 146.362 114 146.202 114H145.122ZM136.002 114C135.842 114 135.706 113.952 135.594 113.856C135.498 113.744 135.45 113.608 135.45 113.448V105.432C135.45 105.272 135.498 105.144 135.594 105.048C135.706 104.936 135.842 104.88 136.002 104.88H137.082C137.258 104.88 137.394 104.936 137.49 105.048C137.586 105.144 137.634 105.272 137.634 105.432V113.448C137.634 113.608 137.586 113.744 137.49 113.856C137.394 113.952 137.258 114 137.082 114H136.002ZM150.861 114C150.701 114 150.565 113.952 150.453 113.856C150.357 113.744 150.309 113.608 150.309 113.448V100.848C150.309 100.688 150.357 100.56 150.453 100.464C150.565 100.352 150.701 100.296 150.861 100.296H155.517C156.909 100.296 158.053 100.52 158.949 100.968C159.861 101.4 160.541 102.056 160.989 102.936C161.437 103.8 161.661 104.888 161.661 106.2V113.448C161.661 113.608 161.605 113.744 161.493 113.856C161.397 113.952 161.269 114 161.109 114H160.029C159.853 114 159.717 113.952 159.621 113.856C159.525 113.744 159.477 113.608 159.477 113.448V106.272C159.477 104.992 159.157 104 158.517 103.296C157.877 102.576 156.837 102.216 155.397 102.216H152.493V113.448C152.493 113.608 152.445 113.744 152.349 113.856C152.253 113.952 152.117 114 151.941 114H150.861ZM164.999 114C164.839 114 164.703 113.952 164.591 113.856C164.495 113.744 164.447 113.608 164.447 113.448V112.632C164.447 112.472 164.495 112.344 164.591 112.248C164.703 112.136 164.839 112.08 164.999 112.08H171.767V113.544C171.767 113.704 171.711 113.824 171.599 113.904C171.503 113.968 171.375 114 171.215 114H164.999ZM170.303 114C170.143 114 170.015 113.952 169.919 113.856C169.839 113.744 169.783 113.608 169.751 113.448L169.295 106.032C169.263 105.248 169.199 104.568 169.103 103.992C169.023 103.416 168.831 102.968 168.527 102.648C168.239 102.328 167.751 102.168 167.063 102.168H166.079C165.919 102.168 165.783 102.12 165.671 102.024C165.575 101.912 165.527 101.776 165.527 101.616V100.8C165.527 100.64 165.575 100.512 165.671 100.416C165.783 100.304 165.919 100.248 166.079 100.248H167.087C167.999 100.248 168.735 100.384 169.295 100.656C169.855 100.912 170.287 101.296 170.591 101.808C170.895 102.32 171.119 102.928 171.263 103.632C171.407 104.32 171.503 105.096 171.551 105.96L171.983 113.448C172.015 113.608 171.975 113.744 171.863 113.856C171.751 113.952 171.615 114 171.455 114H170.303ZM184.661 114C184.501 114 184.365 113.952 184.253 113.856C184.157 113.744 184.109 113.608 184.109 113.448V106.272C184.109 104.992 183.789 104 183.149 103.296C182.509 102.576 181.477 102.216 180.053 102.216H175.541C175.381 102.216 175.245 102.168 175.133 102.072C175.037 101.96 174.989 101.824 174.989 101.664V100.848C174.989 100.688 175.037 100.56 175.133 100.464C175.245 100.352 175.381 100.296 175.541 100.296H180.173C182.253 100.296 183.789 100.8 184.781 101.808C185.789 102.816 186.293 104.28 186.293 106.2V113.448C186.293 113.608 186.237 113.744 186.125 113.856C186.029 113.952 185.901 114 185.741 114H184.661ZM175.541 114C175.381 114 175.245 113.952 175.133 113.856C175.037 113.744 174.989 113.608 174.989 113.448V105.432C174.989 105.272 175.037 105.144 175.133 105.048C175.245 104.936 175.381 104.88 175.541 104.88H176.621C176.797 104.88 176.933 104.936 177.029 105.048C177.125 105.144 177.173 105.272 177.173 105.432V113.448C177.173 113.608 177.125 113.744 177.029 113.856C176.933 113.952 176.797 114 176.621 114H175.541Z" fill="#1B1534"/>
<path d="M199.312 115.299C197.755 115.299 196.442 115.045 195.373 114.538C194.305 114.013 193.49 113.334 192.929 112.501C192.385 111.668 192.096 110.78 192.059 109.839C192.041 109.676 192.087 109.549 192.195 109.459C192.322 109.35 192.467 109.296 192.63 109.296H195.156C195.355 109.296 195.518 109.341 195.645 109.431C195.79 109.504 195.899 109.64 195.971 109.839C196.152 110.382 196.406 110.826 196.732 111.17C197.076 111.514 197.465 111.767 197.9 111.93C198.352 112.093 198.823 112.175 199.312 112.175C199.964 112.175 200.553 112.048 201.078 111.795C201.621 111.523 202.056 111.125 202.382 110.599C202.708 110.074 202.871 109.431 202.871 108.671C202.871 108.001 202.717 107.421 202.409 106.932C202.101 106.443 201.676 106.063 201.132 105.791C200.607 105.502 200 105.357 199.312 105.357C198.805 105.357 198.389 105.42 198.063 105.547C197.737 105.674 197.456 105.819 197.221 105.981C197.003 106.144 196.804 106.289 196.623 106.416C196.46 106.543 196.27 106.606 196.053 106.606H193.553C193.39 106.606 193.246 106.552 193.119 106.443C193.01 106.317 192.956 106.172 192.956 106.009L193.907 96.7185C193.925 96.4831 194.006 96.302 194.151 96.1752C194.296 96.0485 194.468 95.9851 194.667 95.9851H204.881C205.062 95.9851 205.216 96.0485 205.343 96.1752C205.469 96.302 205.533 96.4559 205.533 96.637V98.457C205.533 98.6381 205.469 98.792 205.343 98.9188C205.216 99.0456 205.062 99.109 204.881 99.109H197.03L196.596 103.537C196.922 103.319 197.356 103.111 197.9 102.912C198.443 102.713 199.195 102.613 200.154 102.613C201.024 102.613 201.848 102.758 202.626 103.048C203.423 103.319 204.129 103.727 204.745 104.27C205.361 104.795 205.841 105.438 206.185 106.199C206.547 106.941 206.728 107.792 206.728 108.752C206.728 110.074 206.42 111.224 205.804 112.202C205.189 113.18 204.329 113.941 203.224 114.484C202.119 115.027 200.815 115.299 199.312 115.299ZM216.755 115.272C215.469 115.272 214.373 115.081 213.468 114.701C212.562 114.321 211.82 113.796 211.24 113.126C210.661 112.456 210.226 111.686 209.937 110.817C209.647 109.929 209.475 108.988 209.42 107.992C209.402 107.503 209.384 106.968 209.366 106.389C209.366 105.791 209.366 105.194 209.366 104.596C209.384 103.999 209.402 103.446 209.42 102.939C209.457 101.943 209.629 101.01 209.937 100.141C210.244 99.2538 210.688 98.4842 211.268 97.8322C211.865 97.1803 212.617 96.6642 213.522 96.2839C214.428 95.9036 215.505 95.7134 216.755 95.7134C218.022 95.7134 219.109 95.9036 220.015 96.2839C220.92 96.6642 221.662 97.1803 222.242 97.8322C222.84 98.4842 223.283 99.2538 223.573 100.141C223.881 101.01 224.053 101.943 224.089 102.939C224.125 103.446 224.143 103.999 224.143 104.596C224.143 105.194 224.143 105.791 224.143 106.389C224.143 106.968 224.125 107.503 224.089 107.992C224.053 108.988 223.89 109.929 223.6 110.817C223.31 111.686 222.876 112.456 222.296 113.126C221.717 113.796 220.965 114.321 220.042 114.701C219.136 115.081 218.041 115.272 216.755 115.272ZM216.755 112.148C217.932 112.148 218.792 111.767 219.335 111.007C219.897 110.228 220.187 109.178 220.205 107.856C220.241 107.331 220.259 106.805 220.259 106.28C220.259 105.737 220.259 105.194 220.259 104.65C220.259 104.107 220.241 103.591 220.205 103.102C220.187 101.816 219.897 100.784 219.335 100.005C218.792 99.2086 217.932 98.8101 216.755 98.8101C215.596 98.8101 214.736 99.2086 214.174 100.005C213.631 100.784 213.341 101.816 213.305 103.102C213.305 103.591 213.296 104.107 213.278 104.65C213.278 105.194 213.278 105.737 213.278 106.28C213.296 106.805 213.305 107.331 213.305 107.856C213.341 109.178 213.64 110.228 214.201 111.007C214.763 111.767 215.614 112.148 216.755 112.148ZM228.686 115C228.306 115 228.116 114.819 228.116 114.457C228.116 114.348 228.152 114.248 228.224 114.158L241.616 96.5012C241.743 96.3382 241.87 96.2114 241.997 96.1209C242.123 96.0303 242.304 95.9851 242.54 95.9851H243.979C244.36 95.9851 244.55 96.1662 244.55 96.5284C244.55 96.637 244.514 96.7366 244.441 96.8272L231.049 114.484C230.923 114.647 230.796 114.774 230.669 114.864C230.56 114.955 230.379 115 230.126 115H228.686ZM241.752 115.163C240.539 115.163 239.579 114.828 238.873 114.158C238.166 113.488 237.777 112.61 237.705 111.523C237.686 111.052 237.677 110.645 237.677 110.301C237.677 109.957 237.686 109.531 237.705 109.024C237.777 107.937 238.148 107.059 238.818 106.389C239.506 105.719 240.484 105.384 241.752 105.384C243.038 105.384 244.016 105.719 244.686 106.389C245.374 107.059 245.745 107.937 245.799 109.024C245.836 109.531 245.854 109.957 245.854 110.301C245.854 110.645 245.836 111.052 245.799 111.523C245.745 112.61 245.356 113.488 244.631 114.158C243.925 114.828 242.965 115.163 241.752 115.163ZM241.752 113.044C242.15 113.044 242.458 112.963 242.676 112.8C242.911 112.637 243.083 112.428 243.192 112.175C243.3 111.921 243.355 111.668 243.355 111.414C243.391 110.962 243.409 110.581 243.409 110.273C243.409 109.947 243.391 109.576 243.355 109.16C243.337 108.743 243.21 108.363 242.974 108.019C242.739 107.657 242.332 107.476 241.752 107.476C241.191 107.476 240.792 107.657 240.557 108.019C240.321 108.363 240.186 108.743 240.149 109.16C240.131 109.576 240.122 109.947 240.122 110.273C240.122 110.581 240.131 110.962 240.149 111.414C240.186 111.668 240.249 111.921 240.339 112.175C240.448 112.428 240.611 112.637 240.828 112.8C241.064 112.963 241.372 113.044 241.752 113.044ZM230.914 105.547C229.7 105.547 228.74 105.23 228.034 104.596C227.328 103.962 226.938 103.102 226.866 102.016C226.848 101.545 226.839 101.137 226.839 100.793C226.839 100.431 226.848 99.9963 226.866 99.4893C226.938 98.4027 227.31 97.5244 227.98 96.8543C228.668 96.1843 229.646 95.8493 230.914 95.8493C232.199 95.8493 233.177 96.1843 233.847 96.8543C234.535 97.5244 234.907 98.4027 234.961 99.4893C234.997 99.9963 235.015 100.431 235.015 100.793C235.015 101.137 234.997 101.545 234.961 102.016C234.907 103.102 234.517 103.962 233.793 104.596C233.087 105.23 232.127 105.547 230.914 105.547ZM230.914 103.537C231.312 103.537 231.62 103.455 231.837 103.292C232.073 103.129 232.245 102.921 232.353 102.667C232.462 102.414 232.516 102.151 232.516 101.88C232.552 101.427 232.571 101.047 232.571 100.739C232.571 100.413 232.552 100.042 232.516 99.6251C232.498 99.2086 232.371 98.8283 232.136 98.4842C231.9 98.1401 231.493 97.9681 230.914 97.9681C230.352 97.9681 229.954 98.1401 229.718 98.4842C229.483 98.8283 229.356 99.2086 229.338 99.6251C229.32 100.042 229.311 100.413 229.311 100.739C229.311 101.047 229.32 101.427 229.338 101.88C229.356 102.151 229.41 102.414 229.501 102.667C229.61 102.921 229.773 103.129 229.99 103.292C230.225 103.455 230.533 103.537 230.914 103.537Z" fill="white"/>
</g>
<g clip-path="url(#clip0_1503_2702)">
<g filter="url(#filter2_d_1503_2702)">
<path d="M207.61 102.416V123.16C206.812 122.623 206.051 122.032 205.333 121.393C201.409 117.895 199.18 113.282 199.012 108.347V103.123C199.043 102.926 199.144 102.747 199.296 102.617C199.448 102.487 199.641 102.416 199.841 102.416L207.61 102.416Z" fill="#FFEA2C"/>
<path d="M242 103.256V107.744C242 112.905 239.751 117.753 235.667 121.393C234.953 122.029 234.196 122.617 233.402 123.151V102.417H241.16C241.383 102.417 241.596 102.505 241.754 102.662C241.911 102.82 242 103.034 242 103.256Z" fill="url(#paint0_linear_1503_2702)"/>
<path d="M216.207 102.417V126.617C213.132 126.073 210.205 124.896 207.609 123.16V102.417H216.207Z" fill="#FFC229"/>
<path d="M224.805 102.417V126.616C221.962 127.127 219.05 127.128 216.207 126.617V102.417H224.805Z" fill="#FFEA2C"/>
<path d="M233.403 102.417V123.151C230.808 124.89 227.88 126.07 224.805 126.616V102.417H233.403Z" fill="#FFC229"/>
<path opacity="0.51" d="M241.161 102.417H199.841C199.641 102.417 199.448 102.488 199.296 102.617C199.144 102.747 199.043 102.926 199.012 103.124V108.347C199.18 113.282 201.409 117.895 205.333 121.393C206.051 122.033 206.812 122.623 207.61 123.16C210.205 124.896 213.133 126.073 216.208 126.617C219.051 127.128 221.962 127.127 224.805 126.616C227.88 126.07 230.808 124.89 233.403 123.151C234.197 122.617 234.954 122.029 235.668 121.393C239.752 117.753 242.001 112.905 242.001 107.744V103.256C242.001 103.034 241.912 102.82 241.755 102.662C241.597 102.505 241.384 102.417 241.161 102.417Z" fill="#DB4D0F"/>
<path d="M242 103.256C242 104.358 241.895 105.457 241.688 106.539C241.688 106.545 241.686 106.551 241.685 106.557C240.831 110.988 238.24 115.037 234.388 117.957C230.516 120.895 225.584 122.512 220.5 122.512C215.416 122.512 210.484 120.895 206.612 117.957C202.76 115.037 200.169 110.988 199.315 106.557C199.313 106.551 199.312 106.545 199.312 106.539C199.105 105.457 199 104.358 199 103.256C199 98.0947 201.249 93.2472 205.332 89.6073C209.389 85.9918 214.776 84.0005 220.5 84.0005C226.224 84.0005 231.611 85.9918 235.668 89.6073C239.751 93.2472 242 98.0947 242 103.256Z" fill="url(#paint1_linear_1503_2702)"/>
<path d="M237.756 103.257C237.756 104.086 237.677 104.913 237.52 105.728C237.517 105.745 237.515 105.759 237.511 105.775C236.853 109.14 234.84 112.247 231.845 114.52C228.701 116.904 224.672 118.216 220.499 118.216C216.326 118.216 212.296 116.904 209.152 114.52C206.157 112.248 204.143 109.14 203.485 105.771C203.483 105.764 203.482 105.757 203.481 105.751C203.479 105.744 203.478 105.736 203.477 105.729C203.32 104.914 203.242 104.087 203.242 103.257C203.242 99.3384 204.993 95.6275 208.17 92.8093C211.452 89.8993 215.83 88.2969 220.499 88.2969C225.167 88.2969 229.545 89.8993 232.826 92.8084C236.005 95.628 237.756 99.338 237.756 103.257Z" fill="url(#paint2_linear_1503_2702)"/>
<path d="M220.499 119.34C216.012 119.34 211.68 117.929 208.3 115.366C205.079 112.922 202.915 109.582 202.206 105.959C202.205 105.952 202.203 105.944 202.202 105.937C202.201 105.93 202.199 105.922 202.198 105.915C202.03 105.039 201.945 104.148 201.945 103.256C201.945 99.0429 203.827 95.0535 207.244 92.0228C210.773 88.8946 215.48 87.1719 220.499 87.1719C225.519 87.1719 230.225 88.8946 233.754 92.0226C237.171 95.0545 239.053 99.0437 239.053 103.256C239.053 104.148 238.968 105.037 238.8 105.913C238.796 105.932 238.794 105.948 238.791 105.963C238.083 109.582 235.918 112.922 232.697 115.366C229.318 117.93 224.986 119.34 220.499 119.34ZM203.976 105.624C204.602 108.808 206.524 111.758 209.389 113.931C212.457 116.258 216.403 117.539 220.499 117.539C224.596 117.539 228.541 116.258 231.609 113.931C234.476 111.756 236.398 108.804 237.023 105.618C237.026 105.6 237.029 105.585 237.032 105.569C237.178 104.807 237.252 104.032 237.252 103.256C237.252 99.5659 235.585 96.055 232.558 93.3703C229.36 90.5348 225.077 88.9731 220.499 88.9731C215.921 88.9731 211.638 90.5352 208.439 93.3705C205.413 96.0544 203.747 99.5653 203.747 103.256C203.746 104.036 203.82 104.814 203.968 105.58C203.969 105.585 203.969 105.589 203.97 105.593C203.972 105.604 203.974 105.614 203.976 105.624Z" fill="url(#paint3_linear_1503_2702)"/>
</g>
<path d="M210.821 104.569C210.23 104.29 209.78 103.965 209.47 103.596C209.164 103.22 208.977 102.836 208.909 102.442C208.851 102.045 208.897 101.671 209.048 101.32C209.075 101.263 209.116 101.225 209.172 101.205C209.227 101.185 209.283 101.189 209.34 101.216L210.603 101.813C210.684 101.852 210.738 101.901 210.764 101.959C210.8 102.014 210.818 102.073 210.819 102.135C210.808 102.306 210.823 102.46 210.867 102.596C210.916 102.735 210.99 102.854 211.089 102.955C211.194 103.058 211.321 103.146 211.472 103.217C211.648 103.3 211.829 103.34 212.016 103.336C212.202 103.332 212.374 103.278 212.53 103.176C212.696 103.069 212.827 102.913 212.926 102.705C213.015 102.517 213.048 102.333 213.026 102.153C213.009 101.976 212.945 101.811 212.833 101.658C212.721 101.505 212.571 101.384 212.382 101.295C212.231 101.223 212.1 101.184 211.988 101.177C211.879 101.164 211.781 101.168 211.694 101.188C211.608 101.209 211.53 101.226 211.462 101.24C211.397 101.248 211.333 101.237 211.27 101.207L210.036 100.622C209.979 100.596 209.938 100.553 209.912 100.495C209.895 100.433 209.9 100.374 209.927 100.317L211.823 97.189C211.88 97.1007 211.947 97.048 212.025 97.0308C212.105 97.0073 212.186 97.0149 212.268 97.0535L216.046 98.8422C216.115 98.8749 216.161 98.9237 216.185 98.9885C216.208 99.0533 216.203 99.1202 216.17 99.1893L215.751 100.075C215.718 100.144 215.669 100.19 215.605 100.213C215.54 100.237 215.473 100.232 215.404 100.199L212.671 98.9055L211.969 100.073C212.152 100.044 212.348 100.044 212.556 100.074C212.775 100.1 213.044 100.189 213.364 100.341C213.666 100.484 213.928 100.669 214.15 100.898C214.379 101.129 214.556 101.389 214.68 101.679C214.811 101.972 214.873 102.278 214.868 102.598C214.872 102.915 214.796 103.237 214.642 103.564C214.43 104.01 214.133 104.354 213.75 104.595C213.373 104.839 212.932 104.965 212.429 104.973C211.928 104.975 211.392 104.84 210.821 104.569ZM217.096 107.529C216.643 107.314 216.281 107.066 216.007 106.782C215.737 106.493 215.545 106.183 215.432 105.853C215.326 105.526 215.287 105.184 215.317 104.829C215.346 104.474 215.434 104.12 215.578 103.765C215.652 103.593 215.737 103.398 215.832 103.181C215.936 102.962 216.04 102.742 216.144 102.522C216.257 102.299 216.359 102.101 216.448 101.928C216.631 101.591 216.848 101.302 217.101 101.06C217.363 100.815 217.656 100.635 217.98 100.519C218.313 100.4 218.673 100.355 219.059 100.384C219.452 100.416 219.868 100.536 220.307 100.744C220.753 100.955 221.11 101.201 221.377 101.481C221.644 101.761 221.834 102.067 221.947 102.397C222.069 102.724 222.119 103.066 222.095 103.424C222.075 103.776 221.989 104.128 221.838 104.479C221.767 104.661 221.679 104.865 221.571 105.091C221.474 105.314 221.37 105.534 221.259 105.751C221.158 105.964 221.061 106.153 220.968 106.317C220.792 106.656 220.573 106.948 220.311 107.193C220.055 107.441 219.764 107.627 219.437 107.749C219.116 107.874 218.758 107.923 218.363 107.898C217.977 107.869 217.554 107.746 217.096 107.529ZM217.743 106.162C218.069 106.317 218.354 106.325 218.596 106.186C218.848 106.044 219.062 105.795 219.238 105.44C219.337 105.264 219.434 105.075 219.529 104.874C219.63 104.676 219.725 104.475 219.814 104.271C219.91 104.07 219.991 103.882 220.059 103.706C220.216 103.358 220.27 103.041 220.22 102.756C220.177 102.474 219.993 102.252 219.669 102.091C219.34 101.943 219.052 101.942 218.807 102.087C218.561 102.232 218.35 102.474 218.174 102.814C218.088 102.981 217.994 103.163 217.892 103.361C217.797 103.562 217.702 103.763 217.607 103.964C217.518 104.168 217.433 104.363 217.353 104.548C217.196 104.912 217.143 105.236 217.192 105.521C217.245 105.8 217.428 106.013 217.743 106.162ZM221.406 109.454C221.262 109.385 221.219 109.288 221.278 109.162C221.296 109.125 221.325 109.096 221.365 109.077L228.92 105.155C228.99 105.12 229.055 105.096 229.114 105.086C229.173 105.075 229.246 105.091 229.334 105.132L230.003 105.449C230.148 105.517 230.19 105.614 230.131 105.74C230.113 105.778 230.084 105.806 230.044 105.826L222.49 109.747C222.419 109.783 222.354 109.806 222.295 109.817C222.236 109.827 222.163 109.812 222.075 109.77L221.406 109.454ZM226.123 111.744C225.696 111.542 225.407 111.267 225.257 110.919C225.113 110.574 225.114 110.205 225.261 109.814C225.332 109.647 225.397 109.501 225.457 109.376C225.516 109.25 225.591 109.101 225.68 108.928C225.887 108.556 226.166 108.316 226.518 108.206C226.88 108.092 227.283 108.141 227.729 108.352C228.182 108.566 228.475 108.847 228.61 109.196C228.748 109.538 228.739 109.907 228.583 110.302C228.512 110.483 228.447 110.637 228.387 110.763C228.328 110.889 228.253 111.03 228.163 111.187C227.96 111.552 227.676 111.787 227.311 111.891C226.946 111.995 226.551 111.947 226.123 111.744ZM226.516 110.915C226.623 110.966 226.715 110.982 226.792 110.965C226.876 110.951 226.95 110.917 227.014 110.862C227.081 110.802 227.134 110.731 227.172 110.649C227.253 110.511 227.322 110.382 227.379 110.262C227.435 110.143 227.49 110.011 227.543 109.867C227.593 109.745 227.609 109.622 227.591 109.498C227.575 109.367 227.489 109.265 227.332 109.191C227.175 109.116 227.041 109.115 226.931 109.185C226.824 109.25 226.739 109.34 226.676 109.457C226.604 109.592 226.54 109.719 226.483 109.839C226.427 109.958 226.368 110.091 226.306 110.239C226.273 110.323 226.252 110.409 226.241 110.497C226.24 110.581 226.26 110.659 226.302 110.733C226.344 110.807 226.415 110.867 226.516 110.915ZM223.708 106.541C223.274 106.335 222.981 106.062 222.827 105.72C222.683 105.375 222.688 105.008 222.841 104.619C222.906 104.45 222.966 104.306 223.023 104.186C223.088 104.064 223.166 103.916 223.256 103.743C223.456 103.369 223.732 103.126 224.084 103.016C224.445 102.903 224.852 102.953 225.305 103.167C225.757 103.381 226.05 103.663 226.185 104.011C226.323 104.353 226.311 104.72 226.149 105.112C226.078 105.294 226.013 105.448 225.953 105.574C225.897 105.693 225.824 105.831 225.734 105.989C225.536 106.357 225.255 106.593 224.891 106.697C224.529 106.795 224.135 106.743 223.708 106.541ZM224.091 105.73C224.192 105.778 224.284 105.794 224.367 105.78C224.454 105.76 224.529 105.722 224.594 105.668C224.661 105.608 224.712 105.54 224.748 105.464C224.829 105.326 224.897 105.197 224.954 105.077C225.01 104.958 225.065 104.826 225.118 104.682C225.168 104.56 225.181 104.435 225.157 104.308C225.141 104.178 225.058 104.077 224.908 104.006C224.75 103.932 224.614 103.928 224.497 103.996C224.39 104.061 224.304 104.151 224.242 104.267C224.17 104.403 224.106 104.53 224.049 104.649C223.993 104.769 223.934 104.902 223.871 105.049C223.842 105.128 223.822 105.211 223.811 105.298C223.81 105.382 223.829 105.464 223.868 105.544C223.91 105.618 223.984 105.68 224.091 105.73Z" fill="white"/>
</g>
<defs>
<filter id="filter0_d_1503_2702" x="78" y="62" width="190" height="96.2837" filterUnits="userSpaceOnUse" color-interpolation-filters="sRGB">
<feFlood flood-opacity="0" result="BackgroundImageFix"/>
<feColorMatrix in="SourceAlpha" type="matrix" values="0 0 0 0 0 0 0 0 0 0 0 0 0 0 0 0 0 0 127 0" result="hardAlpha"/>
<feOffset dy="4"/>
<feGaussianBlur stdDeviation="2"/>
<feComposite in2="hardAlpha" operator="out"/>
<feColorMatrix type="matrix" values="0 0 0 0 0 0 0 0 0 0 0 0 0 0 0 0 0 0 0.25 0"/>
<feBlend mode="normal" in2="BackgroundImageFix" result="effect1_dropShadow_1503_2702"/>
<feBlend mode="normal" in="SourceGraphic" in2="effect1_dropShadow_1503_2702" result="shape"/>
</filter>
<filter id="filter1_d_1503_2702" x="0.507462" y="0.880596" width="344.985" height="251.269" filterUnits="userSpaceOnUse" color-interpolation-filters="sRGB">
<feFlood flood-opacity="0" result="BackgroundImageFix"/>
<feColorMatrix in="SourceAlpha" type="matrix" values="0 0 0 0 0 0 0 0 0 0 0 0 0 0 0 0 0 0 127 0" result="hardAlpha"/>
<feOffset dy="20.3731"/>
<feGaussianBlur stdDeviation="40.7463"/>
<feComposite in2="hardAlpha" operator="out"/>
<feColorMatrix type="matrix" values="0 0 0 0 0 0 0 0 0 0 0 0 0 0 0 0 0 0 0.1 0"/>
<feBlend mode="normal" in2="BackgroundImageFix" result="effect1_dropShadow_1503_2702"/>
<feBlend mode="normal" in="SourceGraphic" in2="effect1_dropShadow_1503_2702" result="shape"/>
</filter>
<filter id="filter2_d_1503_2702" x="194" y="79.0005" width="53" height="52.999" filterUnits="userSpaceOnUse" color-interpolation-filters="sRGB">
<feFlood flood-opacity="0" result="BackgroundImageFix"/>
<feColorMatrix in="SourceAlpha" type="matrix" values="0 0 0 0 0 0 0 0 0 0 0 0 0 0 0 0 0 0 127 0" result="hardAlpha"/>
<feOffset/>
<feGaussianBlur stdDeviation="2.5"/>
<feComposite in2="hardAlpha" operator="out"/>
<feColorMatrix type="matrix" values="0 0 0 0 1 0 0 0 0 0.760784 0 0 0 0 0.160784 0 0 0 0.41 0"/>
<feBlend mode="normal" in2="BackgroundImageFix" result="effect1_dropShadow_1503_2702"/>
<feBlend mode="normal" in="SourceGraphic" in2="effect1_dropShadow_1503_2702" result="shape"/>
</filter>
<linearGradient id="paint0_linear_1503_2702" x1="237.701" y1="105.991" x2="237.701" y2="80.3709" gradientUnits="userSpaceOnUse">
<stop stop-color="#F67E00"/>
<stop offset="0.186" stop-color="#F79F00"/>
<stop offset="0.39" stop-color="#F9BB00"/>
<stop offset="0.594" stop-color="#F9CF00"/>
<stop offset="0.798" stop-color="#FADB00"/>
<stop offset="1" stop-color="#FADF00"/>
</linearGradient>
<linearGradient id="paint1_linear_1503_2702" x1="241.872" y1="103.256" x2="199.638" y2="103.256" gradientUnits="userSpaceOnUse">
<stop stop-color="#F67E00"/>
<stop offset="0.186" stop-color="#F79F00"/>
<stop offset="0.39" stop-color="#F9BB00"/>
<stop offset="0.594" stop-color="#F9CF00"/>
<stop offset="0.798" stop-color="#FADB00"/>
<stop offset="1" stop-color="#FADF00"/>
</linearGradient>
<linearGradient id="paint2_linear_1503_2702" x1="236.967" y1="103.257" x2="139.725" y2="103.257" gradientUnits="userSpaceOnUse">
<stop stop-color="#F67E00"/>
<stop offset="0.186" stop-color="#F79F00"/>
<stop offset="0.39" stop-color="#F9BB00"/>
<stop offset="0.594" stop-color="#F9CF00"/>
<stop offset="0.798" stop-color="#FADB00"/>
<stop offset="1" stop-color="#FADF00"/>
</linearGradient>
<linearGradient id="paint3_linear_1503_2702" x1="203.547" y1="103.256" x2="237.276" y2="103.256" gradientUnits="userSpaceOnUse">
<stop stop-color="#FFF033"/>
<stop offset="1" stop-color="#FFC229"/>
</linearGradient>
<clipPath id="clip0_1503_2702">
<rect width="43" height="43" fill="white" transform="translate(199 84)"/>
</clipPath>
</defs>
</svg>
